<svg height="512pt" viewBox="0 -40 512 511" width="512pt" xmlns="http://www.w3.org/2000/svg"><path d="m512 371.554688v-371.054688h-512v371.054688h160.9375v30.050781h-30.039062v30h250.203124v-30h-30.035156v-30.050781zm-30-341.054688v230.992188h-452v-230.992188zm-452 260.992188h452v50.0625h-452zm291.0625 110.113281h-130.125v-30.050781h130.128906v30.050781zm0 0"/><path d="m271.011719 127.53125h180.953125v30h-180.953125zm0 0"/><path d="m60.035156 127.53125h180.953125v30h-180.953125zm0 0"/><path d="m150.109375 67.480469h211.78125v30h-211.78125zm0 0"/><path d="m60.035156 67.480469h60.050782v30h-60.050782zm0 0"/><path d="m391.914062 67.480469h60.050782v30h-60.050782zm0 0"/><path d="m150.109375 187.578125h211.78125v30h-211.78125zm0 0"/><path d="m60.035156 187.578125h60.050782v30h-60.050782zm0 0"/><path d="m391.914062 187.578125h60.050782v30h-60.050782zm0 0"/></svg>